<svg width="287" height="72" viewBox="0 0 287 72" fill="none" xmlns="http://www.w3.org/2000/svg">
<path d="M95.734 58.58C92.834 58.58 90.2433 58.2513 87.962 57.594C85.7193 56.9367 83.728 55.9893 81.988 54.752C80.2867 53.5147 78.7593 52.0647 77.406 50.402L84.134 42.804C86.0673 45.3173 88.0587 46.9993 90.108 47.85C92.1573 48.662 94.1487 49.068 96.082 49.068C96.9327 49.068 97.706 48.9907 98.402 48.836C99.098 48.6427 99.62 48.3527 99.968 47.966C100.355 47.5407 100.548 47.0187 100.548 46.4C100.548 45.8587 100.393 45.3947 100.084 45.008C99.7747 44.6213 99.3493 44.2927 98.808 44.022C98.2667 43.7127 97.6673 43.442 97.01 43.21C96.3527 42.978 95.6953 42.804 95.038 42.688C94.3807 42.5333 93.7427 42.3787 93.124 42.224C90.8427 41.7213 88.8513 41.0833 87.15 40.31C85.4487 39.5367 84.018 38.628 82.858 37.584C81.7367 36.5013 80.886 35.264 80.306 33.872C79.7647 32.48 79.494 30.914 79.494 29.174C79.494 27.2793 79.9387 25.5393 80.828 23.954C81.7173 22.3687 82.8967 21.0153 84.366 19.894C85.8353 18.734 87.5173 17.864 89.412 17.284C91.3453 16.6653 93.356 16.356 95.444 16.356C98.3053 16.356 100.741 16.646 102.752 17.226C104.763 17.7673 106.445 18.56 107.798 19.604C109.19 20.648 110.389 21.866 111.394 23.258L104.55 29.87C103.738 28.9807 102.849 28.246 101.882 27.666C100.954 27.086 99.9873 26.6607 98.982 26.39C97.9767 26.0807 96.952 25.926 95.908 25.926C94.9413 25.926 94.0907 26.0227 93.356 26.216C92.66 26.4093 92.1187 26.6993 91.732 27.086C91.3453 27.434 91.152 27.9173 91.152 28.536C91.152 29.0773 91.3647 29.5607 91.79 29.986C92.2153 30.3727 92.7567 30.7013 93.414 30.972C94.0713 31.2427 94.7673 31.4747 95.502 31.668C96.2753 31.8227 96.9713 31.958 97.59 32.074C99.7167 32.4993 101.65 33.06 103.39 33.756C105.169 34.4133 106.715 35.264 108.03 36.308C109.345 37.3133 110.35 38.5507 111.046 40.02C111.742 41.4893 112.09 43.21 112.09 45.182C112.09 48.082 111.355 50.5373 109.886 52.548C108.455 54.52 106.503 56.028 104.028 57.072C101.592 58.0773 98.8273 58.58 95.734 58.58ZM132.952 58.58C129.434 58.58 126.398 57.9033 123.846 56.55C121.294 55.158 119.322 53.2633 117.93 50.866C116.538 48.43 115.842 45.6653 115.842 42.572C115.842 40.252 116.229 38.106 117.002 36.134C117.776 34.162 118.858 32.4607 120.25 31.03C121.642 29.5607 123.286 28.4393 125.18 27.666C127.114 26.854 129.221 26.448 131.502 26.448C133.745 26.448 135.775 26.8347 137.592 27.608C139.448 28.3813 141.034 29.4833 142.348 30.914C143.702 32.3447 144.726 34.0267 145.422 35.96C146.157 37.8933 146.486 40.02 146.408 42.34L146.35 44.776H121.99L120.656 39.382H137.708L136.664 40.542V39.44C136.664 38.5893 136.432 37.8547 135.968 37.236C135.543 36.5787 134.963 36.076 134.228 35.728C133.494 35.38 132.662 35.206 131.734 35.206C130.42 35.206 129.318 35.4767 128.428 36.018C127.578 36.5207 126.92 37.2553 126.456 38.222C125.992 39.1887 125.76 40.3487 125.76 41.702C125.76 43.2487 126.07 44.5827 126.688 45.704C127.346 46.8253 128.293 47.6953 129.53 48.314C130.806 48.9327 132.353 49.242 134.17 49.242C135.369 49.242 136.413 49.0873 137.302 48.778C138.23 48.4687 139.216 47.9273 140.26 47.154L145.248 54.172C143.895 55.2547 142.522 56.1247 141.13 56.782C139.777 57.4007 138.424 57.8453 137.07 58.116C135.717 58.4253 134.344 58.58 132.952 58.58ZM152.089 58V15.08H162.877V58H152.089ZM171.12 58V15.08H181.908V58H171.12ZM204.433 58.58C200.914 58.58 197.879 57.9033 195.327 56.55C192.775 55.158 190.803 53.2633 189.411 50.866C188.019 48.43 187.323 45.6653 187.323 42.572C187.323 40.252 187.709 38.106 188.483 36.134C189.256 34.162 190.339 32.4607 191.731 31.03C193.123 29.5607 194.766 28.4393 196.661 27.666C198.594 26.854 200.701 26.448 202.983 26.448C205.225 26.448 207.255 26.8347 209.073 27.608C210.929 28.3813 212.514 29.4833 213.829 30.914C215.182 32.3447 216.207 34.0267 216.903 35.96C217.637 37.8933 217.966 40.02 217.889 42.34L217.831 44.776H193.471L192.137 39.382H209.189L208.145 40.542V39.44C208.145 38.5893 207.913 37.8547 207.449 37.236C207.023 36.5787 206.443 36.076 205.709 35.728C204.974 35.38 204.143 35.206 203.215 35.206C201.9 35.206 200.798 35.4767 199.909 36.018C199.058 36.5207 198.401 37.2553 197.937 38.222C197.473 39.1887 197.241 40.3487 197.241 41.702C197.241 43.2487 197.55 44.5827 198.169 45.704C198.826 46.8253 199.773 47.6953 201.011 48.314C202.287 48.9327 203.833 49.242 205.651 49.242C206.849 49.242 207.893 49.0873 208.783 48.778C209.711 48.4687 210.697 47.9273 211.741 47.154L216.729 54.172C215.375 55.2547 214.003 56.1247 212.611 56.782C211.257 57.4007 209.904 57.8453 208.551 58.116C207.197 58.4253 205.825 58.58 204.433 58.58ZM223.511 58V27.086H233.603L234.183 37.236L231.921 35.496C232.424 33.7947 233.197 32.2673 234.241 30.914C235.324 29.522 236.619 28.4393 238.127 27.666C239.635 26.854 241.221 26.448 242.883 26.448C243.579 26.448 244.237 26.506 244.855 26.622C245.474 26.6993 246.054 26.8153 246.595 26.97L243.637 38.918C243.212 38.6473 242.613 38.4153 241.839 38.222C241.066 37.99 240.235 37.874 239.345 37.874C238.572 37.874 237.876 38.0093 237.257 38.28C236.639 38.512 236.117 38.86 235.691 39.324C235.266 39.788 234.937 40.3487 234.705 41.006C234.473 41.6247 234.357 42.3593 234.357 43.21V58H223.511ZM261.1 58.522C258.548 58.522 256.247 57.8453 254.198 56.492C252.187 55.1 250.582 53.2053 249.384 50.808C248.224 48.372 247.644 45.6073 247.644 42.514C247.644 39.3433 248.224 36.5593 249.384 34.162C250.544 31.7647 252.148 29.8893 254.198 28.536C256.247 27.144 258.606 26.448 261.274 26.448C262.704 26.448 264.019 26.6413 265.218 27.028C266.416 27.4147 267.46 27.9753 268.35 28.71C269.239 29.4447 270.012 30.276 270.67 31.204C271.327 32.132 271.868 33.1373 272.294 34.22L270.09 34.104V27.086H280.704V58H269.858V50.46L272.236 50.576C271.888 51.6973 271.366 52.7413 270.67 53.708C270.012 54.6747 269.2 55.5253 268.234 56.26C267.267 56.956 266.184 57.5167 264.986 57.942C263.826 58.3287 262.53 58.522 261.1 58.522ZM264.174 49.648C265.411 49.648 266.474 49.3773 267.364 48.836C268.253 48.256 268.93 47.4247 269.394 46.342C269.896 45.2593 270.148 43.9833 270.148 42.514C270.148 41.006 269.896 39.7107 269.394 38.628C268.93 37.5453 268.253 36.7333 267.364 36.192C266.474 35.612 265.411 35.322 264.174 35.322C262.936 35.322 261.873 35.612 260.984 36.192C260.133 36.7333 259.476 37.5453 259.012 38.628C258.548 39.7107 258.316 41.006 258.316 42.514C258.316 43.9833 258.548 45.2593 259.012 46.342C259.476 47.4247 260.133 48.256 260.984 48.836C261.873 49.3773 262.936 49.648 264.174 49.648Z" fill="url(#paint0_linear_42_16)"/>
<rect y="2" width="70" height="70" rx="10" fill="url(#paint1_linear_42_16)"/>
<path d="M32.7166 60.1834C39.3151 50.7194 37.8036 46.721 33.33 44.6686C16.0662 54.919 12.5557 57.0033 19.5518 68L32.7166 60.1834Z" fill="url(#paint2_radial_42_16)"/>
<path d="M30.0132 14.598L13.3384 24.4986C1.56768 43.9189 23.9803 40.3791 33.33 44.6686C37.8036 46.721 39.3151 50.7194 32.7166 60.1834L56.1538 46.5505C71.3804 20.4651 24.5904 34.696 16.4162 33.5343C13.8676 30.5685 26.0584 23.1879 30.0132 14.598Z" fill="url(#paint3_radial_42_16)"/>
<path d="M44.494 6L30.0132 14.598C26.0584 23.1879 13.8676 30.5685 16.4162 33.5343C38.5552 20.3893 51.8342 17.5375 44.494 6Z" fill="url(#paint4_radial_42_16)"/>
<path d="M32.7166 60.1834L56.1538 46.5505C71.3804 20.4651 24.5904 34.696 16.4162 33.5343M32.7166 60.1834C39.3151 50.7194 37.8036 46.721 33.33 44.6686M32.7166 60.1834L19.5518 68C12.5557 57.0033 16.0662 54.919 33.33 44.6686M30.0132 14.598L13.3384 24.4986C1.56768 43.9189 23.9803 40.3791 33.33 44.6686M30.0132 14.598L44.494 6C51.8342 17.5375 38.5552 20.3893 16.4162 33.5343M30.0132 14.598C26.0584 23.1879 13.8676 30.5685 16.4162 33.5343" stroke="url(#paint5_linear_42_16)" stroke-width="2"/>
<defs>
<linearGradient id="paint0_linear_42_16" x1="83.537" y1="17" x2="264.338" y2="48.8514" gradientUnits="userSpaceOnUse">
<stop stop-color="#DA2E3F"/>
<stop offset="1" stop-color="#B40718"/>
</linearGradient>
<linearGradient id="paint1_linear_42_16" x1="0" y1="2" x2="70" y2="72" gradientUnits="userSpaceOnUse">
<stop stop-color="#E5394A"/>
<stop offset="1" stop-color="#AD0011"/>
</linearGradient>
<radialGradient id="paint2_radial_42_16" cx="0" cy="0" r="1" gradientUnits="userSpaceOnUse" gradientTransform="translate(34.5895 37) rotate(90) scale(31 24.5895)">
<stop stop-color="white"/>
<stop offset="1" stop-color="#BEBEBE"/>
</radialGradient>
<radialGradient id="paint3_radial_42_16" cx="0" cy="0" r="1" gradientUnits="userSpaceOnUse" gradientTransform="translate(34.5895 37) rotate(90) scale(31 24.5895)">
<stop stop-color="white"/>
<stop offset="1" stop-color="#BEBEBE"/>
</radialGradient>
<radialGradient id="paint4_radial_42_16" cx="0" cy="0" r="1" gradientUnits="userSpaceOnUse" gradientTransform="translate(34.5895 37) rotate(90) scale(31 24.5895)">
<stop stop-color="white"/>
<stop offset="1" stop-color="#BEBEBE"/>
</radialGradient>
<linearGradient id="paint5_linear_42_16" x1="2.22684" y1="2.49564" x2="63.1171" y2="70.1748" gradientUnits="userSpaceOnUse">
<stop stop-color="#E5394A"/>
<stop offset="1" stop-color="#AD0011"/>
</linearGradient>
</defs>
</svg>
