<svg width="70" height="70" viewBox="0 0 70 70" fill="none" xmlns="http://www.w3.org/2000/svg">
<rect width="70" height="70" rx="10" fill="url(#paint0_linear_42_15)"/>
<path d="M32.7166 58.1834C39.3151 48.7194 37.8036 44.721 33.33 42.6686C16.0662 52.919 12.5557 55.0033 19.5518 66L32.7166 58.1834Z" fill="url(#paint1_radial_42_15)"/>
<path d="M30.0132 12.598L13.3384 22.4986C1.56768 41.9189 23.9803 38.3791 33.33 42.6686C37.8036 44.721 39.3151 48.7194 32.7166 58.1834L56.1538 44.5505C71.3804 18.4651 24.5904 32.696 16.4162 31.5343C13.8676 28.5685 26.0584 21.1879 30.0132 12.598Z" fill="url(#paint2_radial_42_15)"/>
<path d="M44.494 4L30.0132 12.598C26.0584 21.1879 13.8676 28.5685 16.4162 31.5343C38.5552 18.3893 51.8342 15.5375 44.494 4Z" fill="url(#paint3_radial_42_15)"/>
<path d="M32.7166 58.1834L56.1538 44.5505C71.3804 18.4651 24.5904 32.696 16.4162 31.5343M32.7166 58.1834C39.3151 48.7194 37.8036 44.721 33.33 42.6686M32.7166 58.1834L19.5518 66C12.5557 55.0033 16.0662 52.919 33.33 42.6686M30.0132 12.598L13.3384 22.4986C1.56768 41.9189 23.9803 38.3791 33.33 42.6686M30.0132 12.598L44.494 4C51.8342 15.5375 38.5552 18.3893 16.4162 31.5343M30.0132 12.598C26.0584 21.1879 13.8676 28.5685 16.4162 31.5343" stroke="url(#paint4_linear_42_15)" stroke-width="2"/>
<defs>
<linearGradient id="paint0_linear_42_15" x1="0" y1="0" x2="70" y2="70" gradientUnits="userSpaceOnUse">
<stop stop-color="#E5394A"/>
<stop offset="1" stop-color="#AD0011"/>
</linearGradient>
<radialGradient id="paint1_radial_42_15" cx="0" cy="0" r="1" gradientUnits="userSpaceOnUse" gradientTransform="translate(34.5895 35) rotate(90) scale(31 24.5895)">
<stop stop-color="white"/>
<stop offset="1" stop-color="#BEBEBE"/>
</radialGradient>
<radialGradient id="paint2_radial_42_15" cx="0" cy="0" r="1" gradientUnits="userSpaceOnUse" gradientTransform="translate(34.5895 35) rotate(90) scale(31 24.5895)">
<stop stop-color="white"/>
<stop offset="1" stop-color="#BEBEBE"/>
</radialGradient>
<radialGradient id="paint3_radial_42_15" cx="0" cy="0" r="1" gradientUnits="userSpaceOnUse" gradientTransform="translate(34.5895 35) rotate(90) scale(31 24.5895)">
<stop stop-color="white"/>
<stop offset="1" stop-color="#BEBEBE"/>
</radialGradient>
<linearGradient id="paint4_linear_42_15" x1="2.22684" y1="0.495641" x2="63.1171" y2="68.1748" gradientUnits="userSpaceOnUse">
<stop stop-color="#E5394A"/>
<stop offset="1" stop-color="#AD0011"/>
</linearGradient>
</defs>
</svg>
